<svg xmlns="http://www.w3.org/2000/svg" width="512" height="512" viewBox="0 0 512 512" version="1.1"><path d="M 114.739 98.750 C 114.984 101.362, 116.156 114.075, 117.342 127 L 119.500 150.500 227.250 150.754 L 335 151.009 335.008 153.254 C 335.018 156.288, 331.046 201.663, 330.413 205.750 L 329.909 209 227.455 209 L 125 209 125.072 213.250 C 125.112 215.588, 126.125 228.075, 127.322 241 L 129.500 264.500 227.250 264.755 L 325 265.010 325 267.134 C 325 272.683, 318.760 337.581, 318.172 338.155 C 317.421 338.887, 257.895 354.988, 255.820 355.021 C 254.575 355.040, 193.880 338.954, 193.165 338.415 C 192.980 338.277, 191.953 328.564, 190.883 316.831 C 189.812 305.099, 188.739 294.938, 188.499 294.250 C 188.164 293.290, 181.543 293, 159.959 293 L 131.856 293 132.460 298.250 C 132.792 301.137, 134.622 321.022, 136.527 342.438 C 138.437 363.901, 140.449 381.660, 141.012 382.007 C 141.573 382.354, 167.674 389.754, 199.013 398.451 L 255.994 414.264 312.899 398.502 C 344.197 389.832, 370.247 382.460, 370.788 382.120 C 371.589 381.615, 397.081 103.795, 397.019 96.250 L 397 94 255.647 94 L 114.294 94 114.739 98.750" stroke="none" fill="#f3f4f4" fill-rule="evenodd"/><path d="M 30.001 0.750 C 30.012 6.670, 71.135 460.500, 71.704 460.981 C 72.721 461.840, 253.993 512.018, 256 511.996 C 257.891 511.975, 439.814 461.519, 440.510 460.823 C 440.893 460.440, 481.991 4.703, 481.999 0.750 C 481.999 0.337, 380.300 0, 256 0 C 131.700 0, 30.001 0.337, 30.001 0.750 M 114.739 98.750 C 114.984 101.362, 116.156 114.075, 117.342 127 L 119.500 150.500 227.250 150.754 L 335 151.009 335.008 153.254 C 335.018 156.288, 331.046 201.663, 330.413 205.750 L 329.909 209 227.455 209 L 125 209 125.072 213.250 C 125.112 215.588, 126.125 228.075, 127.322 241 L 129.500 264.500 227.250 264.755 L 325 265.010 325 267.134 C 325 272.683, 318.760 337.581, 318.172 338.155 C 317.421 338.887, 257.895 354.988, 255.820 355.021 C 254.575 355.040, 193.880 338.954, 193.165 338.415 C 192.980 338.277, 191.953 328.564, 190.883 316.831 C 189.812 305.099, 188.739 294.938, 188.499 294.250 C 188.164 293.290, 181.543 293, 159.959 293 L 131.856 293 132.460 298.250 C 132.792 301.137, 134.622 321.022, 136.527 342.438 C 138.437 363.901, 140.449 381.660, 141.012 382.007 C 141.573 382.354, 167.674 389.754, 199.013 398.451 L 255.994 414.264 312.899 398.502 C 344.197 389.832, 370.247 382.460, 370.788 382.120 C 371.589 381.615, 397.081 103.795, 397.019 96.250 L 397 94 255.647 94 L 114.294 94 114.739 98.750" stroke="none" fill="#2452e8" fill-rule="evenodd"/></svg>